<svg xmlns="http://www.w3.org/2000/svg" version="1.1" xmlns:xlink="http://www.w3.org/1999/xlink" xmlns:svgjs="http://svgjs.dev/svgjs" width="1000" height="285" viewBox="0 0 1000 285"><g transform="matrix(1,0,0,1,-0.6060328658500111,0.4521216271161279)"><svg viewBox="0 0 396 113" data-background-color="#e5f3fa" preserveAspectRatio="xMidYMid meet" height="285" width="1000" xmlns="http://www.w3.org/2000/svg" xmlns:xlink="http://www.w3.org/1999/xlink"><g id="tight-bounds" transform="matrix(1,0,0,1,0.24001098512337649,-0.17926225917236138)"><svg viewBox="0 0 395.52 113.35851584558763" height="113.35851584558763" width="395.52"><g><svg viewBox="0 0 656.9758052139882 188.29339154914436" height="113.35851584558763" width="395.52"><g transform="matrix(1,0,0,1,259.47820521398825,47.1772880146733)"><svg viewBox="0 0 397.4975999999999 93.93881551979776" height="93.93881551979776" width="397.4975999999999"><g id="textblocktransform"><svg viewBox="0 0 397.4975999999999 93.93881551979776" height="93.93881551979776" width="397.4975999999999" id="textblock"><g><rect width="397.4975999999999" height="5.281030974143538" x="0" y="64.78143956987427" fill="#131a2f" opacity="1" stroke-width="0" stroke="transparent" fill-opacity="1" class="rect-o-0" data-fill-palette-color="primary" rx="1%" id="o-0" data-palette-color="#131a2f"></rect></g><g transform="matrix(1,0,0,1,0.9887999999999693,0)"><svg viewBox="0 0 395.52 58.56032978357952" height="58.56032978357952" width="395.52"><g transform="matrix(1,0,0,1,0,0)"><svg width="395.52" viewBox="1.100000023841858 -30.979999542236328 213.1899871826172 31.56999969482422" height="58.56032978357952" data-palette-color="#131a2f"><path d="M1.42 0L25.59 0 26.49-8.08 24.41-8.4 21.22-2.34 10.42-2.34 10.42-27.37 14.6-28.52 14.84-30.37 1.42-30.37 1.1-28.52 5.69-27.27 5.69-2.95 1.64-1.81 1.42 0ZM27.22-28.52L31.66-27.49 31.66-2.95 27.59-1.81 27.39 0 40.57 0 40.82-1.95 36.4-2.78 36.4-27.59 40.52-28.52 40.77-30.37 27.49-30.37 27.22-28.52ZM41.89-28.52L46.33-27.49 46.33-2.95 42.26-1.81 42.06 0 56.49 0 56.81-2.03 51.07-2.98 51.07-14.11 57.76-14.11 58.49-9.72 60.64-10.06 61.3-19.63 59.1-19.29 58.08-16.36 51.07-16.36 51.07-28.13 62.42-28.13 63.25-22.85 65.4-22.51 66.4-30.37 42.16-30.37 41.89-28.52ZM66.98-28.52L71.43-27.49 71.43-2.95 67.35-1.81 67.16 0 91.94 0 92.67-7.64 90.64-7.96 88.25-2.34 76.16-2.34 76.16-14.23 82.85-14.23 83.68-9.96 85.76-10.28 86.59-19.78 84.27-19.43 83.24-16.5 76.16-16.5 76.16-28.13 87.66-28.13 88.66-22.88 90.79-22.56 91.55-30.37 67.25-30.37 66.98-28.52ZM115.34 0.59Q117.74 0.59 119.95-0.17 122.16-0.93 123.86-2.09 125.57-3.25 126.62-4.52L126.62-4.52 125.77-6.37Q124.04-4.79 121.78-3.75 119.52-2.71 117.22-2.71L117.22-2.71Q114.25-2.71 111.73-4.26 109.22-5.81 107.69-8.83 106.16-11.84 106.16-16.06L106.16-16.06Q106.16-19.9 107.36-22.75 108.56-25.61 110.62-27.14 112.68-28.66 115.25-28.66L115.25-28.66Q117.49-28.66 119.07-27.98 120.64-27.29 121.55-26.12L121.55-26.12 122.57-20.75 124.72-20.43 125.48-28.54Q123.82-29.81 121.52-30.4 119.23-30.98 116.64-30.98L116.64-30.98Q111.39-30.98 107.85-28.45 104.31-25.93 102.62-22.11 100.94-18.29 100.94-14.38L100.94-14.38Q100.94-9.69 102.93-6.3 104.92-2.91 108.22-1.16 111.51 0.59 115.34 0.59L115.34 0.59ZM125.94 0L137.36 0 137.63-1.95 133.09-3.03 135.56-10.55 145.79-10.55 148.45-3.15 144.27-1.81 143.98 0 156.55 0 156.77-1.95 153.43-3.03 143.91-30.96 140.22-30.2 129.79-3.15 126.16-1.81 125.94 0ZM136.48-13.04L141.03-25.24 145.08-13.04 136.48-13.04ZM172.37 0L172.61-2.03 168.02-3.08 168.02-13.11 172.27-13.11 176.15-6.18Q177.91-3.03 180.02-1.26 182.14 0.51 184.85 0.51L184.85 0.51Q186.38 0.51 187.78 0.02L187.78 0.02 188.14-1.64 187.34-1.88Q185.87-2.32 184.82-3.09 183.77-3.86 182.84-4.98 181.92-6.1 180.18-8.52L180.18-8.52 175.79-14.6 175.79-14.62Q178.01-15.41 179.58-16.77 181.16-18.14 181.98-19.78 182.8-21.41 182.8-23.02L182.8-23.02Q182.8-27.08 179.58-28.83 176.37-30.59 170.54-30.59L170.54-30.59Q168.1-30.59 165.44-30.3 162.78-30 159.41-29.47L159.41-29.47 159.16-27.59 163.34-26.86 163.34-2.95 159.26-1.81 158.99 0 172.37 0ZM168.02-28.42Q168.24-28.44 169.06-28.49 169.88-28.54 170.95-28.54L170.95-28.54Q173.08-28.54 174.6-27.66 176.13-26.78 176.94-25.22 177.74-23.66 177.74-21.66L177.74-21.66Q177.74-19.24 176.33-17.63 174.91-16.02 172.86-15.33L172.86-15.33 168.02-15.33 168.02-28.42ZM188.6-28.52L193.05-27.49 193.05-2.95 188.97-1.81 188.77 0 213.55 0 214.29-7.64 212.26-7.96 209.87-2.34 197.78-2.34 197.78-14.23 204.47-14.23 205.3-9.96 207.38-10.28 208.21-19.78 205.89-19.43 204.86-16.5 197.78-16.5 197.78-28.13 209.28-28.13 210.28-22.88 212.41-22.56 213.16-30.37 188.87-30.37 188.6-28.52Z" opacity="1" transform="matrix(1,0,0,1,0,0)" fill="#131a2f" class="wordmark-text-0" data-fill-palette-color="primary" id="text-0"></path></svg></g></svg></g><g transform="matrix(1,0,0,1,0,76.28358033031255)"><svg viewBox="0 0 232.20979200000002 17.655235189485214" height="17.655235189485214" width="232.20979200000002"><g transform="matrix(1,0,0,1,0,0)"><svg width="232.20979200000002" viewBox="0 -34.29999923706055 547.75 41.64999771118164" height="17.655235189485214" data-palette-color="#3b4c7d"><path d="M10.5 0L10.5-12.95 0-33.85 6.45-33.85 13.55-18.5 20.8-33.85 27.1-33.85 16.45-12.7 16.45 0 10.5 0ZM41.65-34.3Q45.4-34.3 48.05-33.1 50.7-31.9 52.42-29.7 54.15-27.5 54.95-24.33 55.75-21.15 55.75-17.2L55.75-17.2Q55.75-13.3 54.87-10.08 54-6.85 52.17-4.55 50.35-2.25 47.57-0.98 44.8 0.3 41 0.3L41 0.3Q37.25 0.3 34.57-0.83 31.9-1.95 30.17-4.13 28.45-6.3 27.65-9.4 26.85-12.5 26.85-16.5L26.85-16.5Q26.85-20.4 27.72-23.68 28.6-26.95 30.42-29.33 32.25-31.7 35.05-33 37.85-34.3 41.65-34.3L41.65-34.3ZM40.95-29.7Q38.75-29.7 37.3-28.73 35.85-27.75 34.95-26.05 34.05-24.35 33.67-22.05 33.3-19.75 33.3-17.05L33.3-17.05Q33.3-14.5 33.65-12.2 34-9.9 34.92-8.15 35.85-6.4 37.47-5.35 39.1-4.3 41.7-4.3L41.7-4.3Q43.85-4.3 45.32-5.25 46.8-6.2 47.7-7.85 48.6-9.5 48.97-11.78 49.35-14.05 49.35-16.7L49.35-16.7Q49.35-19.25 49-21.6 48.65-23.95 47.72-25.75 46.8-27.55 45.17-28.63 43.55-29.7 40.95-29.7L40.95-29.7ZM61-33.85L66.9-33.85 66.9-12.9Q66.9-8.25 68.84-6.28 70.8-4.3 74.15-4.3L74.15-4.3Q77.55-4.3 79.17-6.58 80.8-8.85 80.8-12.9L80.8-12.9 80.8-33.85 86.75-33.85 86.75-12.45Q86.75-9.85 86.07-7.55 85.4-5.25 83.84-3.5 82.3-1.75 79.75-0.73 77.2 0.3 73.5 0.3L73.5 0.3Q69.95 0.3 67.57-0.73 65.2-1.75 63.72-3.5 62.25-5.25 61.62-7.55 61-9.85 61-12.45L61-12.45 61-33.85ZM93.24 0L93.24-33.85Q93.59-33.85 94.84-33.88 96.09-33.9 97.64-33.9 99.19-33.9 100.74-33.93 102.29-33.95 103.29-33.95L103.29-33.95Q109.49-33.95 112.34-31.53 115.19-29.1 115.19-24.7L115.19-24.7Q115.19-21.8 113.74-19.55 112.29-17.3 108.99-16.3L108.99-16.3Q110.39-15.5 111.49-14.1 112.59-12.7 113.64-10.68 114.69-8.65 115.79-5.98 116.89-3.3 118.34 0L118.34 0 111.89 0Q110.19-3.95 108.92-6.75 107.64-9.55 106.44-11.3 105.24-13.05 103.87-13.85 102.49-14.65 100.64-14.65L100.64-14.65 99.19-14.65 99.19 0 93.24 0ZM99.19-29.7L99.19-19 103.04-19Q105.84-19 107.37-20.25 108.89-21.5 108.89-23.95L108.89-23.95Q108.89-25.05 108.59-26.1 108.29-27.15 107.57-27.95 106.84-28.75 105.62-29.23 104.39-29.7 102.54-29.7L102.54-29.7 99.19-29.7ZM154.59 0L154.59-15.4 140.64-15.4 140.64 0 134.69 0 134.69-33.85 140.64-33.85 140.64-19.75 154.59-19.75 154.59-33.85 160.54-33.85 160.54 0 154.59 0ZM167.53 0L167.53-33.85 187.63-33.85 187.63-29.35 173.48-29.35 173.48-19.9 185.13-19.9 184.38-15.35 173.48-15.35 173.48-4.5 188.38-4.5 188.38 0 167.53 0ZM189.43 0L202.43-33.85 207.13-33.85 220.18 0 213.83 0 210.73-8.85 198.53-8.85 195.33 0 189.43 0ZM200.13-13.25L209.18-13.25Q207.58-17.75 206.43-21.43 205.28-25.1 204.68-27.2L204.68-27.2Q203.98-24.95 202.83-21.3 201.68-17.65 200.13-13.25L200.13-13.25ZM223.43 0L223.43-33.85 229.38-33.85 229.38-4.5 242.03-4.5 242.03 0 223.43 0ZM237.53-33.85L261.13-33.85 260.38-29.35 251.98-29.35 251.98 0 246.08 0 246.08-29.35 237.53-29.35 237.53-33.85ZM285.07 0L285.07-15.4 271.13-15.4 271.13 0 265.18 0 265.18-33.85 271.13-33.85 271.13-19.75 285.07-19.75 285.07-33.85 291.03-33.85 291.03 0 285.07 0ZM298.87-6.15Q298.92-6.2 299.67-6.63 300.42-7.05 302.17-7.05L302.17-7.05Q303.92-7.05 304.72-6 305.52-4.95 305.52-3.35L305.52-3.35Q305.52-1.3 304.95 0.35 304.37 2 303.42 3.35 302.47 4.7 301.25 5.7 300.02 6.7 298.67 7.35L298.67 7.35 296.52 4.45Q298.47 3 299.15 1.55 299.82 0.1 299.82-1.25L299.82-1.25Q299.82-2.7 299.37-3.95 298.92-5.2 298.87-6.15L298.87-6.15ZM331.77 0L331.77-12.95 321.27-33.85 327.72-33.85 334.82-18.5 342.07-33.85 348.37-33.85 337.72-12.7 337.72 0 331.77 0ZM362.92-34.3Q366.67-34.3 369.32-33.1 371.97-31.9 373.69-29.7 375.42-27.5 376.22-24.33 377.02-21.15 377.02-17.2L377.02-17.2Q377.02-13.3 376.14-10.08 375.27-6.85 373.44-4.55 371.62-2.25 368.84-0.98 366.07 0.3 362.27 0.3L362.27 0.3Q358.52 0.3 355.84-0.83 353.17-1.95 351.44-4.13 349.72-6.3 348.92-9.4 348.12-12.5 348.12-16.5L348.12-16.5Q348.12-20.4 348.99-23.68 349.87-26.95 351.69-29.33 353.52-31.7 356.32-33 359.12-34.3 362.92-34.3L362.92-34.3ZM362.22-29.7Q360.02-29.7 358.57-28.73 357.12-27.75 356.22-26.05 355.32-24.35 354.94-22.05 354.57-19.75 354.57-17.05L354.57-17.05Q354.57-14.5 354.92-12.2 355.27-9.9 356.19-8.15 357.12-6.4 358.74-5.35 360.37-4.3 362.97-4.3L362.97-4.3Q365.12-4.3 366.59-5.25 368.07-6.2 368.97-7.85 369.87-9.5 370.24-11.78 370.62-14.05 370.62-16.7L370.62-16.7Q370.62-19.25 370.27-21.6 369.92-23.95 368.99-25.75 368.07-27.55 366.44-28.63 364.82-29.7 362.22-29.7L362.22-29.7ZM382.26-33.85L388.16-33.85 388.16-12.9Q388.16-8.25 390.11-6.28 392.06-4.3 395.41-4.3L395.41-4.3Q398.81-4.3 400.44-6.58 402.06-8.85 402.06-12.9L402.06-12.9 402.06-33.85 408.01-33.85 408.01-12.45Q408.01-9.85 407.34-7.55 406.66-5.25 405.11-3.5 403.56-1.75 401.01-0.73 398.46 0.3 394.76 0.3L394.76 0.3Q391.21 0.3 388.84-0.73 386.46-1.75 384.99-3.5 383.51-5.25 382.89-7.55 382.26-9.85 382.26-12.45L382.26-12.45 382.26-33.85ZM414.51 0L414.51-33.85Q414.86-33.85 416.11-33.88 417.36-33.9 418.91-33.9 420.46-33.9 422.01-33.93 423.56-33.95 424.56-33.95L424.56-33.95Q430.76-33.95 433.61-31.53 436.46-29.1 436.46-24.7L436.46-24.7Q436.46-21.8 435.01-19.55 433.56-17.3 430.26-16.3L430.26-16.3Q431.66-15.5 432.76-14.1 433.86-12.7 434.91-10.68 435.96-8.65 437.06-5.98 438.16-3.3 439.61 0L439.61 0 433.16 0Q431.46-3.95 430.19-6.75 428.91-9.55 427.71-11.3 426.51-13.05 425.14-13.85 423.76-14.65 421.91-14.65L421.91-14.65 420.46-14.65 420.46 0 414.51 0ZM420.46-29.7L420.46-19 424.31-19Q427.11-19 428.64-20.25 430.16-21.5 430.16-23.95L430.16-23.95Q430.16-25.05 429.86-26.1 429.56-27.15 428.84-27.95 428.11-28.75 426.89-29.23 425.66-29.7 423.81-29.7L423.81-29.7 420.46-29.7ZM482.21 0L475.51-20.55Q474.76-22.6 474.31-24.55L474.31-24.55Q474.06-23.6 473.83-22.65 473.61-21.7 473.26-20.55L473.26-20.55 466.76 0 462.36 0 452.96-33.85 458.91-33.85 463.31-16.9Q464.46-12.5 464.96-9.8L464.96-9.8Q465.31-11.2 465.78-12.9 466.26-14.6 466.96-16.8L466.96-16.8 472.26-33.85 476.71-33.85 482.01-16.8Q482.71-14.55 483.21-12.7 483.71-10.85 484.01-9.45L484.01-9.45Q484.21-10.85 484.58-12.7 484.96-14.55 485.56-16.8L485.56-16.8 489.96-33.85 496.01-33.85 486.61 0 482.21 0ZM493.65 0L506.65-33.85 511.35-33.85 524.4 0 518.05 0 514.95-8.85 502.75-8.85 499.55 0 493.65 0ZM504.35-13.25L513.4-13.25Q511.8-17.75 510.65-21.43 509.5-25.1 508.9-27.2L508.9-27.2Q508.2-24.95 507.05-21.3 505.9-17.65 504.35-13.25L504.35-13.25ZM531.15 0L531.15-12.95 520.65-33.85 527.1-33.85 534.2-18.5 541.45-33.85 547.75-33.85 537.1-12.7 537.1 0 531.15 0Z" opacity="1" transform="matrix(1,0,0,1,0,0)" fill="#3b4c7d" class="slogan-text-1" data-fill-palette-color="secondary" id="text-1"></path></svg></g></svg></g></svg></g></svg></g><g><svg viewBox="0 0 245.65351679999995 188.29339154914436" height="188.29339154914436" width="245.65351679999995"><g><svg xmlns="http://www.w3.org/2000/svg" xmlns:xlink="http://www.w3.org/1999/xlink" version="1.1" x="0" y="0" viewBox="2.4663877487182617 13.256195068359375 95.35921478271484 73.09282684326172" style="enable-background:new 0 0 100 100;" xml:space="preserve" height="188.29339154914436" width="245.65351679999995" class="icon-icon-0" data-fill-palette-color="accent" id="icon-0"><g fill="#11a2d7" data-fill-palette-color="accent"><path d="M97.051 32.946c-1.74 3.711-12.162 12.639-11.972 19.47 0.026 0.914-3.116 1.49-3.144 0.842-0.302-7 9.536-13.728 12.389-20.71 3.236-7.92-3.637-11.492-7.129-10.87-1.17 0.209-5.128 1.865-6.99 7.224-0.214 0.615-3.12 1.397-3.126 0.687-0.027-3.056-0.71-6.833-3.644-8.181-2.437-1.121-12.854 0.037-8.271 12.262 2.238 5.972 13.938 13.313 15.061 18.737 0.576 2.792-22.753 3.545-26.576 0.174-4.588-4.046-5.577-15.828-6.048-21.714-0.033 0.642-1.849 25.591-3.204 54.481-0.031 0.663-2.936 1.451-3.126 0.687-3.675-14.758-5.921-29.839-9.534-44.607-0.488 3.131-4.363 20.522-6.762 25.712-0.264 0.57-3.151 1.398-3.126 0.687 0.163-4.681-0.091-10.903-4.837-13.378-1.869-0.975-6.293-1.098-14.024-1.544-0.631-0.036-0.679-0.433-0.201-0.749 0.645-0.432 1.46-0.597 2.223-0.597 2.849-0.001 10.069-0.452 14.958 1.794 2.859 1.315 4.064 4.158 4.64 7.064 0.959-3.111 4.463-20.943 5.149-26.736 0.081-0.674 2.918-1.418 3.126-0.686 4.168 14.651 6.486 29.726 9.755 44.586-0.286-18.88 3.258-49.481 2.275-63.167-0.059-0.81 2.874-1.621 3.143-0.843 1.896 5.471 2.717 11.299 2.792 17.045 0.186 14.194 4.356 19.965 5.883 20.959 1.199 0.78 14.612 0.569 19.882 0.585-1.489-7.928-14.439-10.604-15.451-21.284-0.354-3.735 1.243-7.876 4.489-9.973 8.459-5.463 13.362 1.929 14.032 4.162 5.712-9.045 13.353-5.119 15.71-2.235C97.68 25.63 98.617 29.609 97.051 32.946z" fill="#11a2d7" data-fill-palette-color="accent"></path></g></svg></g></svg></g></svg></g><defs></defs></svg><rect width="395.52" height="113.35851584558763" fill="none" stroke="none" visibility="hidden"></rect></g></svg></g></svg>